<?xml version="1.0" encoding="UTF-8"?>
<svg width="76px" height="79px" viewBox="0 0 76 79" version="1.1" xmlns="http://www.w3.org/2000/svg" xmlns:xlink="http://www.w3.org/1999/xlink">
    <!-- Generator: Sketch 59.1 (86144) - https://sketch.com -->
    <title>ar</title>
    <desc>Created with Sketch.</desc>
    <g id="Slicing" stroke="none" stroke-width="1" fill="none" fill-rule="evenodd">
        <g id="ar" fill="#FFCC80" fill-rule="nonzero">
            <path d="M2.45184794,41.4341833 L14.5416714,49.77 L14.5416714,73.7333333 C14.5416714,76.642033 16.8999323,79 19.8089945,79 L56.6802564,79 C59.5893187,79 61.9475796,76.642033 61.9475796,73.7333333 L61.9475796,49.77 L74.0360862,41.4341833 C75.10571,40.6969387 75.7444444,39.480993 75.7444444,38.1820167 C75.7444444,36.8830403 75.10571,35.6670946 74.0360862,34.92985 L61.9475796,26.5966667 L61.9475796,5.26666667 C61.9475796,2.35796698 59.5893187,0 56.6802564,0 L19.8089945,0 C16.8999323,0 14.5416714,2.35796698 14.5416714,5.26666667 L14.5416714,26.5966667 L2.45184794,34.9311667 C1.38277821,35.6684924 0.744444444,36.8841087 0.744444444,38.182675 C0.744444444,39.4812413 1.38277821,40.6968576 2.45184794,41.4341833 Z M61.9475796,29.7935333 L72.5414832,37.0997167 C72.8976551,37.3455188 73.1102996,37.7506145 73.1102996,38.1833333 C73.1102996,38.6160521 72.8976551,39.0211478 72.5414832,39.26695 L61.9475796,46.5718167 L61.9475796,29.7935333 Z M48.372371,2.63333333 L46.6828771,4.43453333 C46.1852997,4.96513074 45.4903902,5.266316 44.7629378,5.26666667 L31.7263131,5.26666667 C30.9985986,5.26573724 30.3035013,4.96467709 29.805057,4.43453333 L28.1168799,2.63333333 L48.372371,2.63333333 Z M17.1753329,27.97785 L17.6902138,27.62235 C18.1290114,27.3193419 18.341717,26.7816346 18.228937,26.2604886 C18.116157,25.7393427 17.7001597,25.3376576 17.1753329,25.2431333 L17.1753329,5.26666667 C17.1753329,3.81231683 18.3544634,2.63333333 19.8089945,2.63333333 L24.5061299,2.63333333 L27.8838009,6.23573333 C28.8811483,7.29536767 30.2710468,7.89735965 31.7263131,7.9 L44.7629378,7.9 C46.2183993,7.89829772 47.6086534,7.2961517 48.6054501,6.23573333 L51.983121,2.63333333 L56.6802564,2.63333333 C58.1347876,2.63333333 59.313918,3.81231683 59.313918,5.26666667 L59.313918,25.2431333 C58.7890913,25.3376576 58.3730939,25.7393427 58.2603139,26.2604886 C58.1475339,26.7816346 58.3602395,27.3193419 58.7990372,27.62235 L59.313918,27.97785 L59.313918,48.3861833 L38.9912685,62.4021 C38.5413273,62.7121778 37.9466068,62.7121778 37.4966656,62.4021 L17.1753329,48.3888167 L17.1753329,27.97785 Z M17.1753329,51.587 L36.0060131,64.5693333 C37.3583983,65.4944136 39.1400704,65.4944136 40.4924556,64.5693333 L59.313918,51.587 L59.313918,67.15 C59.313918,68.6043498 58.1347876,69.7833333 56.6802564,69.7833333 L19.8089945,69.7833333 C18.3544634,69.7833333 17.1753329,68.6043498 17.1753329,67.15 L17.1753329,51.587 Z M17.1753329,71.6846 C17.9724718,72.1585001 18.8816122,72.4112096 19.8089945,72.4166667 L56.6802564,72.4166667 C57.6076387,72.4112096 58.5167791,72.1585001 59.313918,71.6846 L59.313918,73.7333333 C59.313918,75.1876832 58.1347876,76.3666667 56.6802564,76.3666667 L19.8089945,76.3666667 C18.3544634,76.3666667 17.1753329,75.1876832 17.1753329,73.7333333 L17.1753329,71.6846 Z M3.94776771,37.0997167 L14.5416714,29.7909 L14.5416714,46.5731333 L3.94645088,39.26695 C3.59027891,39.0211478 3.37763445,38.6160521 3.37763445,38.1833333 C3.37763445,37.7506145 3.59027891,37.3455188 3.94645088,37.0997167 L3.94776771,37.0997167 Z" id="Shape"></path>
            <path d="M30.0155577,19 C30.2722253,18.9995034 30.5227028,18.9255515 30.7339401,18.7879009 L33.1695863,17.2013609 C33.5554406,16.9632715 33.7742373,16.5463917 33.7411626,16.1123195 C33.7080881,15.6782473 33.428342,15.2952272 33.0103647,15.1117318 C32.5923872,14.9282365 32.1018923,14.9731148 31.7290139,15.2289705 L29.2946369,16.8143123 C28.8362693,17.1118744 28.6365457,17.6565525 28.8019368,18.1579847 C28.9673278,18.6594169 29.4592876,19.0007402 30.0155577,19 L30.0155577,19 Z" id="Shape"></path>
            <path d="M23.7427779,20.2008711 L21.2813323,21.804403 C20.7117869,22.1888875 20.5739404,22.9320265 20.9713402,23.475589 C21.3687399,24.0191515 22.1550815,24.1630225 22.7396809,23.7991289 L25.2075566,22.195597 C25.777102,21.8111125 25.9149484,21.0679735 25.5175487,20.524411 C25.1201489,19.9808485 24.3338074,19.8369775 23.749208,20.2008711 L23.7427779,20.2008711 Z" id="Shape"></path>
            <path d="M38.4604991,13.7446112 L38.7444444,13.4688899 L39.0283898,13.7446112 C39.5321913,14.2096778 40.2066591,14.0223969 40.5483194,13.3225689 C40.8899798,12.6227409 40.7741473,11.6657609 40.2872881,11.165991 L39.373339,10.2761633 C38.9946023,9.90794555 38.4942866,9.90794555 38.1155499,10.2761633 L37.2016008,11.165991 C36.7147416,11.6657609 36.5989091,12.6227409 36.9405694,13.3225689 C37.2822298,14.0223969 37.9566976,14.2096778 38.4604991,13.7446112 L38.4604991,13.7446112 Z" id="Shape"></path>
            <path d="M45.7821417,18.8018868 C46.3570916,19.1607843 47.1304537,19.0188886 47.5212939,18.482789 C47.9121341,17.9466895 47.7765629,17.2137535 47.2164186,16.8345479 L44.789278,15.2542264 C44.4185068,14.9798854 43.9170324,14.922849 43.4878959,15.1062109 C43.0587592,15.2895726 42.773058,15.6829539 42.7464691,16.1270793 C42.7198801,16.5712047 42.9568087,16.9924935 43.3613251,17.2203709 L45.7821417,18.8018868 Z" id="Shape"></path>
            <path d="M53.7362764,23.7867996 C54.1131675,24.0315565 54.5999923,24.0682418 55.0133686,23.8830367 C55.426745,23.6978314 55.7038711,23.3188725 55.7403563,22.8889104 C55.7768415,22.4589482 55.5671427,22.0433041 55.1902515,21.7985472 L52.7319447,20.2002192 C52.149612,19.8375066 51.3663193,19.9809106 50.9704604,20.5227092 C50.5746016,21.0645076 50.7119136,21.8052349 51.2792506,22.1884716 L53.7362764,23.7867996 Z" id="Shape"></path>
            <path d="M38.7444444,46 C38.9943376,46 39.2392016,45.9322838 39.4511111,45.8045715 L50.1177778,39.3760007 C50.5076198,39.1410508 50.7444444,38.729017 50.7444444,38.2857151 L50.7444444,26.7142879 C50.7444444,26.270986 50.5076198,25.8589523 50.1177778,25.6240023 L39.4511111,19.1954316 C39.01875,18.9348561 38.4701388,18.9348561 38.0377778,19.1954316 L27.3711111,25.6240023 C26.9812691,25.8589523 26.7444444,26.270986 26.7444444,26.7142879 L26.7444444,38.2857151 C26.7444444,38.729017 26.9812691,39.1410508 27.3711111,39.3760007 L38.0377778,45.8045715 C38.2496872,45.9322838 38.4945512,46 38.7444444,46 L38.7444444,46 Z M48.0777778,37.5734295 L40.0777778,42.4000004 L40.0777778,33.8564299 L48.0777778,29.0350019 L48.0777778,37.5734295 Z M38.7444444,21.8015741 L46.8951111,26.7142879 L38.7444444,31.6270016 L30.5937778,26.7142879 L38.7444444,21.8015741 Z M37.4111111,42.4000004 L29.4111111,37.5785724 L29.4111111,29.0350019 L37.4111111,33.8564299 L37.4111111,42.4000004 Z" id="Shape"></path>
        </g>
    </g>
</svg>