<?xml version="1.0" encoding="UTF-8"?>
<svg width="42px" height="75px" viewBox="0 0 42 75" version="1.1" xmlns="http://www.w3.org/2000/svg" xmlns:xlink="http://www.w3.org/1999/xlink">
    <!-- Generator: Sketch 59.1 (86144) - https://sketch.com -->
    <title>coding</title>
    <desc>Created with Sketch.</desc>
    <g id="Slicing" stroke="none" stroke-width="1" fill="none" fill-rule="evenodd">
        <g id="coding" fill="#FFCC80" fill-rule="nonzero">
            <path d="M36.6991979,0 L5.34625668,0 C2.68374094,0.00349866623 0.526214963,2.16781465 0.522727273,4.83870968 L0.522727273,70.1612903 C0.526214963,72.8321853 2.68374094,74.9965013 5.34625668,75 L36.6991979,75 C39.3617136,74.9965013 41.5192396,72.8321853 41.5227273,70.1612903 L41.5227273,4.83870968 C41.5192396,2.16781465 39.3617136,0.00349866623 36.6991979,0 Z M26.6662567,2.41935484 L25.9879479,4.83870968 L15.9354111,4.83870968 L15.3324699,2.41935484 L26.6662567,2.41935484 Z M39.1109626,70.1612903 C39.1092187,71.4967378 38.0304557,72.5788958 36.6991979,72.5806452 L5.34625668,72.5806452 C4.01499881,72.5788958 2.93623582,71.4967378 2.93449198,70.1612903 L2.93449198,4.83870968 C2.93623582,3.50326216 4.01499881,2.42110417 5.34625668,2.41935484 L12.8453376,2.41935484 L13.8236096,6.34173387 C13.9577822,6.88019711 14.4400267,7.25798048 14.9933155,7.25806452 L26.9014037,7.25806452 C27.441416,7.25805968 27.9155872,6.89791449 28.0620655,6.3765121 L29.1714773,2.41935484 L36.6991979,2.41935484 C38.0304557,2.42110417 39.1092187,3.50326216 39.1109626,4.83870968 L39.1109626,70.1612903 Z" id="Shape"></path>
            <path d="M14.3005051,68 L5.74494949,68 C5.0699348,68 4.52272727,68.4477153 4.52272727,69 C4.52272727,69.5522847 5.0699348,70 5.74494949,70 L14.3005051,70 C14.9755197,70 15.5227273,69.5522847 15.5227273,69 C15.5227273,68.4477153 14.9755197,68 14.3005051,68 Z" id="Path"></path>
            <path d="M19.5227273,68 L18.5227273,68 C17.9704425,68 17.5227273,68.4477153 17.5227273,69 C17.5227273,69.5522847 17.9704425,70 18.5227273,70 L19.5227273,70 C20.075012,70 20.5227273,69.5522847 20.5227273,69 C20.5227273,68.4477153 20.075012,68 19.5227273,68 Z" id="Path"></path>
            <path d="M23.9158475,31.1781403 C23.6315755,31.0075727 23.2911887,30.9569198 22.96957,31.0373251 C22.6479513,31.1177304 22.3714465,31.3226072 22.2008848,31.6068841 L14.7010476,44.1067032 C14.3458672,44.6986748 14.537821,45.4664954 15.1297883,45.8216784 C15.7217557,46.1768613 16.4895707,45.9849062 16.8447511,45.3929346 L24.3445882,32.8931155 C24.5151547,32.6088414 24.5658071,32.2684522 24.4854024,31.9468311 C24.4049978,31.6252101 24.2001224,31.3487033 23.9158475,31.1781403 Z" id="Path"></path>
            <path d="M29.6005185,29.4690219 C29.1978432,28.9299611 28.4635653,28.8427299 27.9604628,29.2741857 C27.4573603,29.7056415 27.375948,30.4924006 27.7786233,31.0314615 L31.8616284,36.5 L27.7786233,41.9685385 C27.375948,42.5075994 27.4573603,43.2943585 27.9604628,43.7258143 C28.4635653,44.1572701 29.1978432,44.0700389 29.6005185,43.5309781 L34.2668101,37.2812198 C34.608033,36.8245714 34.608033,36.1754286 34.2668101,35.7187802 L29.6005185,29.4690219 Z" id="Path"></path>
            <path d="M11.4449567,43.530998 C11.705443,43.8797102 12.1197687,44.0530335 12.5318612,43.9856787 C12.9439537,43.9183239 13.2912064,43.6205237 13.4428126,43.2044567 C13.5944188,42.7883896 13.5273459,42.3172662 13.2668596,41.968554 L9.18383732,36.5 L13.2668596,31.031446 C13.5273459,30.6827338 13.5944188,30.2116104 13.4428126,29.7955433 C13.2912064,29.3794763 12.9439537,29.0816761 12.5318612,29.0143213 C12.1197687,28.9469665 11.705443,29.1202898 11.4449567,29.469002 L6.77864557,35.718778 C6.43742117,36.1754277 6.43742117,36.8245724 6.77864557,37.281222 L11.4449567,43.530998 Z" id="Path"></path>
        </g>
    </g>
</svg>