<?xml version="1.0" encoding="UTF-8"?>
<svg width="62px" height="63px" viewBox="0 0 62 63" version="1.1" xmlns="http://www.w3.org/2000/svg" xmlns:xlink="http://www.w3.org/1999/xlink">
    <!-- Generator: Sketch 59.1 (86144) - https://sketch.com -->
    <title>design</title>
    <desc>Created with Sketch.</desc>
    <g id="Slicing" stroke="none" stroke-width="1" fill="none" fill-rule="evenodd">
        <g id="design" transform="translate(0.000000, 0.840620)" fill="#FFCC80" fill-rule="nonzero">
            <path d="M38.8428291,36.4312401 L30.2929884,23.4312351 C30.1155828,23.1611784 29.8235415,23 29.5116279,23 C29.1997143,23 28.907673,23.1611784 28.7302675,23.4312351 L20.1804267,36.4312401 C20.0102584,36.6898884 19.9658169,37.0178217 20.0604914,37.3162404 L22.4936336,45 L21.9117694,45 C21.3871087,45 20.9617871,45.4477088 20.9617871,46 L20.9617871,49 C20.9617871,49.5522799 21.3871087,50 21.9117694,50 L22.8617518,50 L22.8617518,61 C22.8617518,61.5522846 23.2870733,62 23.8117341,62 L35.2115218,62 C35.7361825,62 36.1615041,61.5522846 36.1615041,61 L36.1615041,50 L37.1114864,50 C37.6361471,50 38.0614687,49.5522799 38.0614687,49 L38.0614687,46 C38.0614687,45.4477088 37.6361471,45 37.1114864,45 L36.5296222,45 L38.9627644,37.3162404 C39.0574389,37.0178217 39.0129974,36.6898884 38.8428291,36.4312401 Z M29.5116279,34.9999895 C30.0362886,34.9999895 30.4616102,35.447705 30.4616102,35.9999895 C30.4616102,36.5522749 30.0362886,36.9999895 29.5116279,36.9999895 C28.9869672,36.9999895 28.5616456,36.5522749 28.5616456,35.9999895 C28.5623651,35.448019 28.9872655,35.0007469 29.5116279,34.9999895 Z M34.2615394,59.9999954 L24.7617164,59.9999954 L24.7617164,49.9999954 L34.2615394,49.9999954 L34.2615394,59.9999954 Z M36.1615041,47.9999942 L22.8617518,47.9999942 L22.8617518,46.9999942 L36.1615041,46.9999942 L36.1615041,47.9999942 Z M34.526347,44.9999934 L24.4969088,44.9999934 L22.0127051,37.1587404 L28.5616456,27.2012365 L28.5616456,32.9999888 C28.5621593,33.056132 28.5669243,33.1121428 28.5758953,33.1674888 C27.2621223,33.6482059 26.4698892,35.0569686 26.7014575,36.500647 C26.9330257,37.9443253 28.1207471,39.0011769 29.5116279,39.0011769 C30.9025087,39.0011769 32.0902301,37.9443253 32.3217984,36.500647 C32.5533666,35.0569686 31.7611335,33.6482059 30.4473605,33.1674888 C30.4563315,33.1121428 30.4610965,33.056132 30.4616102,32.9999888 L30.4616102,27.2012365 L37.0105508,37.1587404 L34.526347,44.9999934 Z" id="Shape"></path>
            <path d="M60.0277569,11.3142857 L56.0922731,11.3142857 C55.5488961,11.3142857 55.1084021,11.7747928 55.1084021,12.3428571 L55.1084021,13.3804286 C55.0676196,13.3748277 55.0265494,13.3718222 54.9854182,13.3714286 L33.4632408,13.3714286 L33.4632408,12.3428571 C33.4632408,11.7747928 33.0227468,11.3142857 32.4793698,11.3142857 L31.4954989,11.3142857 L31.4954989,6.17142857 L32.4793698,6.17142857 C33.0227468,6.17142857 33.4632408,5.71092146 33.4632408,5.14285714 L33.4632408,1.02857143 C33.4632408,0.460507114 33.0227468,0 32.4793698,0 L28.543886,0 C28.000509,0 27.560015,0.460507114 27.560015,1.02857143 L27.560015,5.14285714 C27.560015,5.71092146 28.000509,6.17142857 28.543886,6.17142857 L29.5277569,6.17142857 L29.5277569,11.3142857 L28.543886,11.3142857 C28.000509,11.3142857 27.560015,11.7747928 27.560015,12.3428571 L27.560015,13.3714286 L5.91485371,13.3714286 L5.91485371,12.3428571 C5.91485371,11.7747928 5.47435968,11.3142857 4.93098275,11.3142857 L0.995498875,11.3142857 C0.452121943,11.3142857 0.011627907,11.7747928 0.011627907,12.3428571 L0.011627907,16.4571429 C0.011627907,17.0252072 0.452121943,17.4857143 0.995498875,17.4857143 L4.93098275,17.4857143 C5.47435968,17.4857143 5.91485371,17.0252072 5.91485371,16.4571429 L5.91485371,15.4285714 L22.1807005,15.4285714 C20.8821613,16.3267039 19.7215092,17.4256425 18.7383819,18.6878571 C16.2159827,21.8854286 14.7696924,25.9457143 14.7696924,29.8285714 L13.7858215,29.8285714 C13.2424445,29.8285714 12.8019505,30.2890785 12.8019505,30.8571429 L12.8019505,34.9714286 C12.8019505,35.5394929 13.2424445,36 13.7858215,36 L17.7213053,36 C18.2646823,36 18.7051763,35.5394929 18.7051763,34.9714286 L18.7051763,30.8571429 C18.7051763,30.2890785 18.2646823,29.8285714 17.7213053,29.8285714 L16.7374344,29.8285714 C16.7374344,22.2017143 22.3504182,16.1858571 27.560015,15.4954286 L27.560015,16.4571429 C27.560015,17.0252072 28.000509,17.4857143 28.543886,17.4857143 L32.4793698,17.4857143 C33.0227468,17.4857143 33.4632408,17.0252072 33.4632408,16.4571429 L33.4632408,15.4915714 C36.1270715,15.822 38.6839061,17.4908571 40.7475755,20.2744286 C42.7559021,22.9808571 44.0312448,26.4857143 44.251386,29.8285714 L43.3019505,29.8285714 C42.7585736,29.8285714 42.3180795,30.2890785 42.3180795,30.8571429 L42.3180795,34.9714286 C42.3180795,35.5394929 42.7585736,36 43.3019505,36 L47.2374344,36 C47.7808113,36 48.2213053,35.5394929 48.2213053,34.9714286 L48.2213053,30.8571429 C48.2213053,30.2890785 47.7808113,29.8285714 47.2374344,29.8285714 L46.2228174,29.8285714 C46.0075956,26.0087143 44.6068094,22.1181429 42.3033215,19.0131429 C41.2903074,17.6227878 40.0693814,16.4123817 38.6875956,15.4285714 L54.9854182,15.4285714 C55.0265494,15.4281778 55.0676196,15.4251723 55.1084021,15.4195714 L55.1084021,16.4571429 C55.1084021,17.0252072 55.5488961,17.4857143 56.0922731,17.4857143 L60.0277569,17.4857143 C60.5711339,17.4857143 61.0116279,17.0252072 61.0116279,16.4571429 L61.0116279,12.3428571 C61.0116279,11.7747928 60.5711339,11.3142857 60.0277569,11.3142857 Z M3.94711178,15.4285714 L1.97936984,15.4285714 L1.97936984,13.3714286 L3.94711178,13.3714286 L3.94711178,15.4285714 Z M16.7374344,33.9428571 L14.7696924,33.9428571 L14.7696924,31.8857143 L16.7374344,31.8857143 L16.7374344,33.9428571 Z M29.5277569,2.05714286 L31.4954989,2.05714286 L31.4954989,4.11428571 L29.5277569,4.11428571 L29.5277569,2.05714286 Z M31.4954989,15.4285714 L29.5277569,15.4285714 L29.5277569,13.3714286 L31.4954989,13.3714286 L31.4954989,15.4285714 Z M44.2858215,31.8857143 L46.2535634,31.8857143 L46.2535634,33.9428571 L44.2858215,33.9428571 L44.2858215,31.8857143 Z M59.043886,15.4285714 L57.076144,15.4285714 L57.076144,13.3714286 L59.043886,13.3714286 L59.043886,15.4285714 Z" id="Shape"></path>
        </g>
    </g>
</svg>