<?xml version="1.0" encoding="UTF-8"?>
<svg width="53px" height="64px" viewBox="0 0 53 64" version="1.1" xmlns="http://www.w3.org/2000/svg" xmlns:xlink="http://www.w3.org/1999/xlink">
    <!-- Generator: Sketch 59.1 (86144) - https://sketch.com -->
    <title>implementation</title>
    <desc>Created with Sketch.</desc>
    <g id="Slicing" stroke="none" stroke-width="1" fill="none" fill-rule="evenodd">
        <g id="implementation" transform="translate(0.000000, -0.159380)" fill="#FFCC80">
            <path d="M41.0469514,64.0004 L30.6624514,64.0004 C29.9747014,64.0004 29.4164514,63.3624 29.4164514,62.5744 C29.4164514,61.7864 29.9747014,61.1464 30.6624514,61.1464 L41.0469514,61.1464 C41.7382014,61.1464 42.2964514,61.7864 42.2964514,62.5744 C42.2964514,63.3624 41.7382014,64.0004 41.0469514,64.0004" id="Fill-1"></path>
            <path d="M51.182258,59.6668235 C50.4993247,59.6668235 49.9463914,59.1038824 49.9463914,58.4085882 L49.9377247,12.2897647 L40.5621247,3.54917647 L30.9195914,12.3003529 L30.9195914,18.5015294 C30.9195914,19.1950588 30.3649247,19.7597647 29.6837247,19.7597647 C29.0007914,19.7597647 28.447858,19.1950588 28.447858,18.5015294 L28.447858,11.7356471 C28.447858,11.3756471 28.5969247,11.0350588 28.8603914,10.7950588 L39.7491914,0.912705882 C40.225858,0.483882353 40.9399914,0.487411765 41.4079914,0.923294118 L52.0107914,10.8074118 C52.2655914,11.0456471 52.4111914,11.3827059 52.4111914,11.7356471 L52.419858,58.4085882 C52.419858,59.1038824 51.8669247,59.6668235 51.182258,59.6668235" id="Fill-4"></path>
            <path d="M9.88780135,64.0003571 C9.16363468,64.0003571 8.57880135,63.4307143 8.57880135,62.7271429 L8.57880135,41.9164286 L2.96696802,41.9164286 L2.96696802,58.8182143 C2.96696802,59.5217857 2.38030135,60.0914286 1.65980135,60.0914286 C0.935634685,60.0914286 0.350801351,59.5217857 0.350801351,58.8182143 L0.350801351,40.6432143 C0.350801351,39.9396429 0.935634685,39.37 1.65980135,39.37 L9.88780135,39.37 C10.6101347,39.37 11.194968,39.9396429 11.194968,40.6432143 L11.194968,62.7271429 C11.194968,63.4307143 10.6101347,64.0003571 9.88780135,64.0003571" id="Fill-7"></path>
            <path d="M11.7638619,60.5204823 L16.9405314,60.5204823 L16.9405314,32.4777801 L11.7638619,32.4777801 L11.7638619,60.5204823 Z M18.1442508,63 L10.5584519,63 C9.8906582,63 9.35135135,62.445714 9.35135135,61.7611099 L9.35135135,31.2388901 C9.35135135,30.554286 9.8906582,30 10.5584519,30 L18.1442508,30 C18.8120445,30 19.3513514,30.554286 19.3513514,31.2388901 L19.3513514,61.7611099 C19.3513514,62.445714 18.8120445,63 18.1442508,63 L18.1442508,63 Z" id="Fill-10"></path>
            <path d="M19.7642698,60.4932662 L24.9418147,60.4932662 L24.9418147,35.5049772 L19.7642698,35.5049772 L19.7642698,60.4932662 Z M26.1457376,63 L18.5569651,63 C17.8907494,63 17.3513514,62.4396299 17.3513514,61.7475114 L17.3513514,34.2524886 C17.3513514,33.5603701 17.8907494,33 18.5569651,33 L26.1457376,33 C26.8119533,33 27.3513514,33.5603701 27.3513514,34.2524886 L27.3513514,61.7475114 C27.3513514,62.4396299 26.8119533,63 26.1457376,63 L26.1457376,63 Z" id="Fill-12"></path>
            <path d="M26.7625789,61.4714983 L31.9401238,61.4714983 L31.9401238,25.5249579 L26.7625789,25.5249579 L26.7625789,61.4714983 Z M33.1474285,64 L25.5569651,64 C24.8924403,64 24.3513514,63.4347638 24.3513514,62.7366351 L24.3513514,24.2633649 C24.3513514,23.5652362 24.8924403,23 25.5569651,23 L33.1474285,23 C33.8119533,23 34.3513514,23.5652362 34.3513514,24.2633649 L34.3513514,62.7366351 C34.3513514,63.4347638 33.8119533,64 33.1474285,64 L33.1474285,64 Z" id="Fill-13"></path>
            <path d="M34.7621713,61.4653641 L39.9388408,61.4653641 L39.9388408,30.5328597 L34.7621713,30.5328597 L34.7621713,61.4653641 Z M41.1442508,64 L33.5584519,64 C32.8906582,64 32.3513514,63.4333925 32.3513514,62.7335702 L32.3513514,29.2664298 C32.3513514,28.5666075 32.8906582,28 33.5584519,28 L41.1442508,28 C41.8086633,28 42.3513514,28.5666075 42.3513514,29.2664298 L42.3513514,62.7335702 C42.3513514,63.4333925 41.8086633,64 41.1442508,64 L41.1442508,64 Z" id="Fill-14"></path>
        </g>
    </g>
</svg>