<?xml version="1.0" encoding="UTF-8"?>
<svg width="48px" height="83px" viewBox="0 0 48 83" version="1.1" xmlns="http://www.w3.org/2000/svg" xmlns:xlink="http://www.w3.org/1999/xlink">
    <!-- Generator: Sketch 59.1 (86144) - https://sketch.com -->
    <title>launch</title>
    <desc>Created with Sketch.</desc>
    <g id="Slicing" stroke="none" stroke-width="1" fill="none" fill-rule="evenodd">
        <g id="launch" transform="translate(24.000000, 43.000000) rotate(-45.000000) translate(-24.000000, -43.000000) translate(-7.000000, 12.000000)" fill="#FFCC80" fill-rule="nonzero">
            <path d="M7.5971839,47.3478605 C8.13427203,46.8107862 8.13427203,45.9399144 7.5971839,45.4027026 C7.06009576,44.8657658 6.1892015,44.8657658 5.65197583,45.4027026 L0.402816102,50.652002 C-0.134272034,51.1890763 -0.134272034,52.0599481 0.402816102,52.5971599 C0.671291401,52.8656283 1.02339015,53 1.37535137,53 C1.72731258,53 2.07941133,52.8656283 2.34788663,52.5971599 L7.5971839,47.3478605 Z" id="Path"></path>
            <path d="M42.9037964,9.90158267 C41.6761301,11.1299695 41,12.7630633 41,14.5000346 C41,16.2371445 41.6761301,17.8702383 42.9037964,19.0984866 C44.1709174,20.3662084 45.8354933,21 47.5000692,21 C49.1646451,21 50.8290826,20.3662084 52.0962036,19.0984866 C53.3240083,17.8702383 54,16.2371445 54,14.5000346 C54,12.7630633 53.3238699,11.1299695 52.0962036,9.90158267 C49.5619616,7.36613911 45.4383153,7.36613911 42.9037964,9.90158267 Z M50.1384165,17.1397713 C48.6835738,18.5955807 46.3165646,18.5954422 44.8615835,17.1397713 C44.1567968,16.4346504 43.7687557,15.4973977 43.7687557,14.5000346 C43.7687557,13.5029485 44.1569352,12.5654189 44.8615835,11.860298 C45.5890741,11.1324625 46.5444332,10.7686141 47.5000692,10.7686141 C48.4554284,10.7686141 49.4112028,11.132601 50.1384165,11.860298 C50.8432032,12.5654189 51.2313828,13.50281 51.2313828,14.5000346 C51.2313828,15.4973977 50.8432032,16.4346504 50.1384165,17.1397713 Z" id="Shape"></path>
            <path d="M11.601723,49.3981669 C11.0706869,48.8672777 10.2096062,48.8672777 9.67857021,49.3981669 L2.39827702,56.6784476 C1.86724099,57.2094728 1.86724099,58.0705359 2.39827702,58.6016971 C2.66386303,58.8671417 3.01185822,59 3.3598534,59 C3.70784859,59 4.05597976,58.8671417 4.32142979,58.6016971 L11.601723,51.3214164 C12.132759,50.7902552 12.132759,49.9291921 11.601723,49.3981669 Z" id="Path"></path>
            <path d="M61.113353,1.85630693 C60.982716,1.38528676 60.6146205,1.01746764 60.1438817,0.886690605 C55.0681192,-0.52205244 49.5702237,-0.247963828 44.2444683,1.67887355 C40.1177042,3.17201583 36.1041681,5.67502423 33.2329397,8.54640885 L28.9021423,12.8772318 L13.2126117,15.3280129 C12.9209764,15.3735551 12.6514854,15.5105994 12.4427169,15.7192298 L2.40804101,25.7539649 C2.01724421,26.1449033 1.89440644,26.7297092 2.09509717,27.2446003 C2.2957879,27.7594913 2.78212519,28.1069766 3.3341988,28.1302352 L13.2326668,28.5465212 L10.7518174,31.0273852 C10.2079608,31.571245 10.2079608,32.4531196 10.7518174,32.9971186 L12.1998268,34.4449973 L7.87501811,41.074237 C7.51513965,41.6258961 7.59076427,42.3541529 8.05662859,42.8200199 L19.1804103,53.943728 C19.6462746,54.4094558 20.3745271,54.4854987 20.9263222,54.1253396 L27.5552443,49.8003661 L29.0032537,51.248384 C29.5471103,51.7921045 30.4289796,51.7921045 30.9729754,51.248384 L33.4538248,48.76752 L33.8701084,58.6657678 C33.8933668,59.217984 34.2408501,59.7041849 34.7557381,59.9048768 C34.9200789,59.9689422 35.0913832,60 35.2612949,60 C35.6239588,60 35.9802162,59.8580812 36.2463647,59.5920704 L46.2810405,49.5573353 C46.489809,49.3485656 46.6267133,49.0789337 46.6723944,48.787436 L49.1233004,33.097952 L53.4539585,28.7671291 C56.3251869,25.8958838 58.8283198,21.882324 60.3214533,17.7556748 C62.2480007,12.4300272 62.5219485,6.93196007 61.113353,1.85630693 Z M20.3508509,51.1748481 L10.8254922,41.6494331 L14.2127228,36.4576266 L18.8928139,41.1377454 L18.3424116,41.688151 C17.7984158,42.2320107 17.7984158,43.1138853 18.3424116,43.6578843 C18.8862682,44.2016048 19.7681375,44.2016048 20.3121333,43.6578843 L20.8625357,43.1074787 L25.5426268,47.7875975 L20.3508509,51.1748481 Z M51.4840975,26.7976743 L46.8322785,31.44966 C46.8317214,31.4502171 46.8311643,31.4507742 46.8306072,31.4513312 L41.9903535,36.2916136 C41.4464969,36.8354733 41.4464969,37.7173479 41.9903535,38.2613469 C42.53421,38.8050674 43.4160794,38.8050674 43.9600752,38.2613469 L45.7820295,36.4393819 L43.9902972,47.9090433 L36.5197553,55.3797685 L36.129237,46.0922313 L40.0209103,42.2005351 C40.5647668,41.6566753 40.5647668,40.7748008 40.0209103,40.2308017 C39.4770537,39.6870812 38.5951844,39.6870812 38.0511885,40.2308017 L33.7308366,44.5511792 C33.7284689,44.5535468 33.7262406,44.5557752 33.723873,44.5581428 L29.9880449,48.2938536 L28.7461579,47.0519592 C28.7319521,47.0373356 28.7177464,47.0229905 28.7029836,47.008924 L22.8319789,41.1377454 L39.6762124,24.2935517 C40.220069,23.7496919 40.2202083,22.8678174 39.6762124,22.3238183 C39.1324951,21.7802371 38.2506258,21.7800978 37.70663,22.3238183 L20.8623964,39.1682906 L14.9911131,33.2969727 C14.977186,33.2824883 14.9629802,33.2682825 14.9483567,33.2542159 L13.7064696,32.0121823 L17.4422977,28.2763322 C17.4446653,28.2741038 17.4468936,28.2718755 17.449122,28.2695079 L21.7694739,23.9491304 C22.3134698,23.4052706 22.3134698,22.5233961 21.7694739,21.979397 C21.2257567,21.4356765 20.343748,21.4356765 19.7998915,21.979397 L15.9082183,25.8710932 L6.62073585,25.4804334 L14.0912777,18.0098474 L25.5608714,16.2182438 L23.7389171,18.0400696 L25.7084996,20.009803 L30.5341298,15.1841442 C30.5445752,15.1739773 30.5550206,15.1636712 30.5651875,15.1530864 L35.2023829,10.5158637 C39.0780399,6.6403231 48.2805664,0.897971692 58.6283254,3.37159356 C61.1019327,13.7195529 55.3596152,22.922273 51.4840975,26.7976743 Z" id="Shape"></path>
            <path d="M14.6521134,54.4028074 L9.4028161,59.6519919 C8.86572797,60.1890685 8.86572797,61.059944 9.4028161,61.5971582 C9.67142894,61.8656277 10.0233902,62 10.3753514,62 C10.7273126,62 11.0794113,61.8656277 11.3478866,61.5971582 L16.5971839,56.3479737 C17.134272,55.8108971 17.134272,54.9400216 16.5971839,54.4028074 C16.0602333,53.8657309 15.189339,53.8657309 14.6521134,54.4028074 Z" id="Path"></path>
        </g>
    </g>
</svg>