<?xml version="1.0" encoding="UTF-8"?>
<svg width="55px" height="58px" viewBox="0 0 55 58" version="1.1" xmlns="http://www.w3.org/2000/svg" xmlns:xlink="http://www.w3.org/1999/xlink">
    <!-- Generator: Sketch 59.1 (86144) - https://sketch.com -->
    <title>research</title>
    <desc>Created with Sketch.</desc>
    <g id="Slicing" stroke="none" stroke-width="1" fill="none" fill-rule="evenodd">
        <g id="research" transform="translate(0.000000, 0.840620)" fill="#FFCC80">
            <path d="M19.3445311,42 C19.138364,42 18.9306349,41.9412805 18.7432102,41.8206674 C13.842054,38.6196593 10.9166667,33.182548 10.9166667,27.2740934 C10.9166667,22.490832 12.7987231,18.0408437 16.2176622,14.7446148 C19.6334776,11.4499729 24.1176138,9.77249865 28.8266596,10.0248339 C37.8058651,10.5009383 45.0217165,18.3328543 44.9155091,27.4819923 C44.8483486,33.3047481 41.9229612,38.6625087 37.0905275,41.8174933 C36.5719858,42.1539404 35.8832,42.001587 35.5505211,41.4762852 C35.2178422,40.9493965 35.367782,40.2495231 35.8847618,39.9130761 C40.0861991,37.1707152 42.6289277,32.514415 42.6867169,27.4550131 C42.7804293,19.5056579 36.5110727,12.7005402 28.711081,12.2847424 C24.6142892,12.0673215 20.718979,13.5242007 17.7498592,16.3855876 C14.7807394,19.2517356 13.143897,23.1177027 13.143897,27.2740934 C13.143897,32.409672 15.6881874,37.1342139 19.947414,39.9162501 C20.4659557,40.2526971 20.6158954,40.9525705 20.2832166,41.4794593 C20.0708019,41.8159063 19.7115712,42 19.3445311,42" id="Fill-1"></path>
            <path d="M27.9166667,6 C27.364072,6 26.9166667,5.49631579 26.9166667,4.87421053 L26.9166667,1.12736842 C26.9166667,0.505263158 27.364072,0 27.9166667,0 C28.4692613,0 28.9166667,0.505263158 28.9166667,1.12736842 L28.9166667,4.87421053 C28.9166667,5.49631579 28.4692613,6 27.9166667,6" id="Fill-3"></path>
            <path d="M18.7230745,8 C18.2661303,8 17.8292715,7.7363503 17.6317645,7.29248434 L16.0199061,3.67314125 C15.7521,3.07242041 16.0232537,2.36824208 16.6258176,2.10292371 C17.2250339,1.83593667 17.9330464,2.10626105 18.2008525,2.70698189 L19.8127108,6.32632498 C20.0821908,6.92704583 19.8093633,7.62955548 19.2067994,7.89654252 C19.0494633,7.96662662 18.885432,8 18.7230745,8" id="Fill-5"></path>
            <path d="M10.7804984,14 C10.5113944,14 10.2391058,13.8971568 10.0209564,13.6914703 L7.29329294,11.0967857 C6.82673989,10.6533796 6.78852394,9.89132801 7.20730705,9.3990292 C7.62609017,8.90504442 8.34423157,8.86458151 8.81078463,9.30630168 L11.5400404,11.9026722 C12.0065934,12.3460783 12.0448094,13.1064439 11.6260263,13.6021147 C11.4015076,13.8651236 11.091003,14 10.7804984,14" id="Fill-7"></path>
            <path d="M6.71031058,21 C6.58693031,21 6.4618599,20.9829929 6.33847963,20.9503961 L2.74862084,19.9724902 C2.11650823,19.7995851 1.77002939,19.2284314 1.97622655,18.6969608 C2.18073358,18.1683247 2.86017013,17.8777875 3.49566302,18.0492753 L7.08383167,19.0271812 C7.71594428,19.198669 8.06242312,19.7698228 7.85791609,20.3012933 C7.69228231,20.7278871 7.21904292,21 6.71031058,21" id="Fill-9"></path>
            <g id="Group-13" transform="translate(0.916667, 28.000000)">
                <path d="M1.06875,2.58945 C0.52725,2.58945 0.06225,2.17845 0.00525,1.62795 C-0.05475,1.03995 0.37425,0.51495 0.96075,0.45495 L4.20225,0.12495 C4.79775,0.05295 5.31525,0.49395 5.37525,1.08045 C5.43525,1.66845 5.00775,2.19345 4.41975,2.25345 L1.17825,2.58345 C1.14075,2.58795 1.10475,2.58945 1.06875,2.58945" id="Fill-11"></path>
            </g>
            <path d="M6.01920913,41 C5.63790472,41 5.26895025,40.79461 5.06363249,40.4242612 C4.76105895,39.8711638 4.94013309,39.1660455 5.46809304,38.8474485 L8.26535454,37.1558115 C8.790227,36.8355972 9.46329875,37.0248148 9.76895978,37.5779121 C10.0730771,38.1293923 9.89245918,38.8345106 9.36604297,39.1531076 L6.56878148,40.8463618 C6.39588231,40.9514827 6.20600198,41 6.01920913,41" id="Fill-14"></path>
            <path d="M49.8140897,41 C49.6257541,41 49.4358747,40.9500135 49.2614326,40.8435907 L46.4641852,39.1440508 C45.9393154,38.8247824 45.7602421,38.1201344 46.0659016,37.5718958 C46.3731048,37.0236571 47.0477169,36.8366109 47.571043,37.1558794 L50.3698342,38.8554193 C50.8947041,39.1746877 51.0722336,39.8793356 50.7681178,40.4291868 C50.5628011,40.7952167 50.1938485,41 49.8140897,41" id="Fill-16"></path>
            <path d="M53.7257291,31 C53.6855801,31 53.6454312,30.9981796 53.6036094,30.9927182 L49.9902049,30.592222 C49.3344388,30.5212249 48.8559973,29.8840718 48.9229122,29.1704602 C48.9898271,28.4568487 49.5770054,27.9234605 50.2310985,28.0090211 L53.844503,28.4095173 C54.500269,28.4823348 54.9787106,29.119488 54.9101228,29.8330995 C54.8482265,30.5012001 54.329636,31 53.7257291,31" id="Fill-18"></path>
            <path d="M49.1250063,21 C48.6151314,21 48.1425231,20.7293161 47.9765173,20.3027408 C47.7698571,19.7712933 48.1154201,19.2001644 48.7506464,19.0272668 L52.3350162,18.0494033 C52.9719363,17.8779229 53.6512049,18.1670304 53.8561712,18.6970607 C54.0645254,19.2285082 53.7172684,19.79822 53.0820422,19.9725348 L49.4993663,20.948981 C49.374015,20.9844109 49.2486637,21 49.1250063,21" id="Fill-20"></path>
            <path d="M44.0663745,14 C43.7521468,14 43.4379191,13.863715 43.2123197,13.5979591 C42.7869037,13.1005187 42.8255779,12.3322118 43.2961138,11.8824711 L45.9984722,9.31179447 C46.4706195,8.86205382 47.1973718,8.9046429 47.6211764,9.40208331 C48.0465924,9.90122729 48.0079182,10.6678307 47.5357709,11.1175713 L44.8350239,13.688248 C44.6158702,13.8960827 44.3403167,14 44.0663745,14" id="Fill-22"></path>
            <path d="M37.1178191,8 C36.9544374,8 36.7893713,7.96627421 36.6293582,7.89545006 C36.0246773,7.62564375 35.7501286,6.91402962 36.0213086,6.30865172 L37.6163861,2.715169 C37.8858818,2.10810481 38.5966766,1.83323964 39.2030419,2.10473223 C39.8094072,2.37453854 40.0822716,3.08615267 39.8127759,3.69321685 L38.216014,7.28501329 C38.0172609,7.73356627 37.5776461,8 37.1178191,8" id="Fill-24"></path>
            <path d="M35.7636324,42 L19.069701,42 C18.4325404,42 17.9166667,41.5529082 17.9166667,41.0007008 C17.9166667,40.4484933 18.4325404,40 19.069701,40 L35.7636324,40 C36.400793,40 36.9166667,40.4484933 36.9166667,41.0007008 C36.9166667,41.5529082 36.400793,42 35.7636324,42" id="Fill-26"></path>
            <path d="M35.7850204,46 L20.0483129,46 C19.4229712,46 18.9166667,45.5529082 18.9166667,45.0007008 C18.9166667,44.4484933 19.4229712,44 20.0483129,44 L35.7850204,44 C36.4103621,44 36.9166667,44.4484933 36.9166667,45.0007008 C36.9166667,45.5529082 36.4103621,46 35.7850204,46" id="Fill-28"></path>
            <path d="M34.7798455,51 L21.0534878,51 C20.4252865,51 19.9166667,50.5529082 19.9166667,50.0007008 C19.9166667,49.4484933 20.4252865,49 21.0534878,49 L34.7798455,49 C35.4080468,49 35.9166667,49.4484933 35.9166667,50.0007008 C35.9166667,50.5529082 35.4080468,51 34.7798455,51" id="Fill-30"></path>
            <g id="Group-34" transform="translate(17.916667, 40.000000)">
                <path d="M2.86432308,2.29067273 L2.86432308,9.00258182 C2.86432308,9.60994545 3.10016923,10.1910364 3.53147692,10.6376727 L5.83178462,13.0254 C6.91409231,14.1504909 8.45032308,14.7949455 10.0495538,14.7949455 C11.6471692,14.7949455 13.1850154,14.1504909 14.2689385,13.0254 L16.5676308,10.6376727 C16.9989385,10.1910364 17.2347846,9.60994545 17.2347846,9.00258182 L17.2347846,2.29067273 L2.86432308,2.29067273 Z M10.0495538,17.0003091 C7.80901538,17.0003091 5.65409231,16.0962182 4.13724615,14.5198545 L1.83693846,12.1321273 C1.01309231,11.2759455 0.559169231,10.1647636 0.559169231,9.00258182 L0.559169231,1.18876364 C0.559169231,0.579854545 1.07609231,0.0853090909 1.71255385,0.0853090909 L18.3881692,0.0853090909 C19.0230154,0.0853090909 19.5399385,0.579854545 19.5399385,1.18876364 L19.5399385,9.00258182 C19.5399385,10.1647636 19.0860154,11.2759455 18.2621692,12.1321273 L15.9618615,14.5198545 C14.4450154,16.0962182 12.2900923,17.0003091 10.0495538,17.0003091 L10.0495538,17.0003091 Z" id="Fill-32"></path>
            </g>
        </g>
    </g>
</svg>