<?xml version="1.0" encoding="UTF-8"?>
<svg width="70px" height="70px" viewBox="0 0 70 70" version="1.1" xmlns="http://www.w3.org/2000/svg" xmlns:xlink="http://www.w3.org/1999/xlink">
    <!-- Generator: Sketch 59.1 (86144) - https://sketch.com -->
    <title>settings</title>
    <desc>Created with Sketch.</desc>
    <g id="Slicing" stroke="none" stroke-width="1" fill="none" fill-rule="evenodd">
        <g id="settings" fill="#FFCC80" fill-rule="nonzero">
            <path d="M58.8519274,56 C56.6463333,56 54.8518519,57.7943304 54.8518519,60.0000755 C54.8518519,62.2056696 56.6461822,64 58.8519274,64 C61.0575215,64 62.8518519,62.2056696 62.8518519,60.0000755 C62.8518519,57.7944815 61.0575215,56 58.8519274,56 Z M58.8517763,61.629417 C57.9534024,61.629417 57.2224349,60.8984495 57.2224349,60.0000755 C57.2224349,59.1017016 57.9534024,58.3707341 58.8517763,58.3707341 C59.7501502,58.3707341 60.4811177,59.1017016 60.4811177,60.0000755 C60.4811177,60.8984495 59.7501502,61.629417 58.8517763,61.629417 Z" id="Shape"></path>
            <path d="M69.8485998,59.7214823 C69.7807737,57.0714622 68.6678832,54.6340399 66.7147632,52.8584731 L45.2882307,33.3808324 L64.2331423,14.2869614 C64.357671,14.2495004 64.4807075,14.2028793 64.5994032,14.1397153 L68.7019319,11.9574101 C69.2686867,11.6558085 69.6487841,11.1163162 69.7444189,10.4777028 C69.8401894,9.83895267 69.6352189,9.21059317 69.182005,8.75340557 L64.5627771,4.09799448 C64.1094275,3.64121704 63.4863771,3.43463497 62.8520675,3.53115842 C62.2184362,3.62754516 61.6832884,4.01063118 61.383904,4.58197895 L59.2184883,8.7164915 C59.1552744,8.83721419 59.1067109,8.96203843 59.0694066,9.08877674 L50.1272151,18.1012786 C49.7115769,18.5203216 49.7115769,19.1992671 50.1272151,19.6183101 C50.5429891,20.036943 51.2166378,20.036943 51.6324117,19.6183101 L59.8382831,11.3477811 L61.9887771,13.5151839 L41.0033854,34.6655788 L38.8528915,32.498176 L48.0128047,23.2663773 C48.4284429,22.8473342 48.4284429,22.1683888 48.0128047,21.7493457 C47.5970308,21.3307128 46.9233821,21.3307128 46.5076081,21.7493457 L39.8614654,28.4477455 L32.6282201,21.8723926 C34.6790097,15.9229383 33.1938897,9.30369865 28.7451766,4.82014306 C24.1884843,0.227622599 17.3526999,-1.23595192 11.3300146,1.09195871 C10.9934615,1.22211499 10.7450824,1.51496661 10.6702024,1.87029871 C10.5953224,2.22563082 10.7037085,2.59504495 10.9585989,2.85193954 L19.3136877,11.2728592 C19.560846,11.5219608 19.6971764,11.8532304 19.6971764,12.2055547 C19.6971764,12.557879 19.5609816,12.8891486 19.3136877,13.1383869 L13.8877363,18.6070013 C13.6405781,18.8562397 13.3118928,18.9935053 12.9623172,18.9935053 C12.6127415,18.9935053 12.2840563,18.8563764 12.0367624,18.6070013 L3.68153792,10.1860816 C3.42651183,9.92918706 3.06025095,9.81994876 2.7075553,9.89541752 C2.35499529,9.97102301 2.06442833,10.2212184 1.93528746,10.5604177 C-0.374462142,16.6301845 1.0776944,23.5197172 5.6345223,28.1125111 C9.97417106,32.4861448 16.4145294,34.0260083 22.2246478,32.1339572 L27.81718,38.2976498 C27.5484531,38.8268882 27.1990131,39.320443 26.7680461,39.7547986 C25.1559556,41.3795645 22.7398547,41.8914396 20.6121503,41.0590957 C20.2188947,40.9048769 19.7727347,40.9997598 19.4742999,41.3004043 L6.44368753,54.4334734 C2.91618834,57.9888452 2.91618834,63.7736901 6.44368753,67.3287885 C8.15276929,69.0515818 10.4248076,70 12.8414511,70 C15.257959,70 17.5301329,69.0515818 19.2389434,67.3293354 L32.2695557,54.1964031 C32.5677192,53.8957585 32.6617262,53.4459537 32.5089818,53.0496059 C31.6829957,50.9053086 32.1908775,48.469937 33.8028323,46.8451711 C35.4151941,45.2204051 37.8314306,44.70853 39.9589993,45.540874 C40.3525263,45.6950927 40.798415,45.5999365 41.0968498,45.2995653 L43.5548672,42.8222211 C44.2949855,42.0762834 44.7024846,41.0843887 44.7024846,40.0296033 C44.7024846,38.9748179 44.2949855,37.9829232 43.5548672,37.2369856 L42.508582,36.1824736 L43.7814064,34.8996413 L65.2893302,54.4513836 C66.8048363,55.8290987 67.6685337,57.7204663 67.7210311,59.7767167 C67.7735285,61.8329671 67.0076363,63.7665808 65.5644328,65.2209951 C64.1281475,66.668847 62.2145023,67.439394 60.1877231,67.3952338 C58.1568744,67.3495698 56.2835178,66.492343 54.9127526,64.9814638 L38.9208532,47.3563626 C38.5237993,46.9189992 37.8509645,46.8889211 37.4172845,47.2886868 C36.9836045,47.6885892 36.9534897,48.3669878 37.3501367,48.8040777 L53.3419004,66.429179 C55.1086343,68.3761911 57.5229718,69.4808788 60.1401092,69.5398046 C60.2133614,69.5414452 60.2864779,69.5422655 60.3595944,69.5422655 C62.8946623,69.5422655 65.2700675,68.5511911 67.0694937,66.73789 C68.929285,64.8633388 69.9161546,62.3715024 69.8485998,59.7214823 Z M61.1459701,9.63182372 L63.1833301,5.74162762 L67.5511945,10.1438355 L63.6913475,12.1972149 L61.1459701,9.63182372 Z M23.3227521,30.1654802 C23.0297434,29.8428239 22.572053,29.7315348 22.1653678,29.8843864 C16.9613433,31.8408321 11.0629154,30.5499334 7.13944754,26.5960264 C3.57695009,23.0053811 2.19655355,17.7999504 3.41294661,12.9494416 L10.5315658,20.1240329 C11.1809328,20.7783689 12.0440876,21.1386229 12.9621815,21.1386229 C13.8802755,21.1386229 14.7434303,20.7783689 15.3926616,20.1240329 L20.818613,14.6554185 C21.4678443,14.0009457 21.8252878,13.1310041 21.8252878,12.2056914 C21.8252878,11.2803787 21.4678443,10.4104372 20.818613,9.75610109 L13.7001294,2.58123636 C18.5123903,1.3547322 23.6777539,2.74639264 27.2401157,6.3370379 C31.2634236,10.3917067 32.4997575,16.4546376 30.3902305,21.783252 C30.2251418,22.2001075 30.3350201,22.6765725 30.6658757,22.977217 L38.3545054,29.9665544 L37.3476949,30.9812812 L36.3014097,29.9267692 C35.5612914,29.1808316 34.5771349,28.7701284 33.5305784,28.7701284 C32.4840218,28.7701284 31.4998653,29.1808316 30.759747,29.9267692 L28.3017296,32.4041135 C28.0035661,32.7047581 27.9095592,33.1545629 28.0623035,33.5509106 C28.3454096,34.285774 28.4681748,35.054407 28.4471487,35.8133329 L23.3227521,30.1654802 Z M42.049535,41.3053262 L40.0578898,43.312768 C37.318801,42.516928 34.3382514,43.2718891 32.297907,45.3281395 L32.2977714,45.3281395 C30.2575627,47.3845267 29.5083557,50.3881015 30.2982583,53.1492739 L17.7338825,65.8121671 C16.4270094,67.1293158 14.6895763,67.8547457 12.8415868,67.8547457 C10.9935972,67.8547457 9.25589279,67.1293158 7.94929103,65.8121671 C5.2515762,63.0933775 5.2515762,58.6694313 7.94929103,55.950505 L20.5135312,43.2874751 C23.2528913,44.0837252 26.2330339,43.3282173 28.2735139,41.2719668 C30.3137227,39.2155797 31.0630653,36.2120049 30.2731627,33.4509692 L32.2649436,31.4436641 C32.9627384,30.7401092 34.098554,30.7401092 34.7963488,31.4436641 L36.5952323,33.2566918 L40.2506515,36.9408527 L42.049535,38.7538804 C42.7476011,39.4574352 42.7476011,40.6020448 42.049535,41.3053262 Z" id="Shape"></path>
            <path d="M21.5455833,48.3062719 C21.1369587,47.8979094 20.4748934,47.8979094 20.0662687,48.3062719 L10.1582204,58.2144303 C9.74972901,58.6230596 9.74972901,59.2851322 10.1582204,59.6937614 C10.362466,59.897876 10.6303052,60 10.8978777,60 C11.1654502,60 11.4332893,59.897876 11.637535,59.6937614 L21.5455833,49.785603 C21.9539414,49.3769738 21.9539414,48.7147678 21.5455833,48.3062719 Z" id="Path"></path>
            <path d="M25.5454859,52.3062753 C25.1369979,51.8979082 24.4748049,51.8979082 24.0661836,52.3062753 L14.1582178,62.2144105 C13.7497299,62.6230443 13.7497299,63.2851243 14.1582178,63.693758 C14.3624618,63.8978749 14.6301654,64 14.897869,64 C15.1654392,64 15.4332761,63.8978749 15.6375201,63.693758 L25.5454859,53.7856228 C25.9539738,53.3769891 25.9539738,52.7149091 25.5454859,52.3062753 Z" id="Path"></path>
        </g>
    </g>
</svg>