<?xml version="1.0" encoding="UTF-8"?>
<svg width="58px" height="57px" viewBox="0 0 58 57" version="1.1" xmlns="http://www.w3.org/2000/svg" xmlns:xlink="http://www.w3.org/1999/xlink">
    <!-- Generator: Sketch 59.1 (86144) - https://sketch.com -->
    <title>ux</title>
    <desc>Created with Sketch.</desc>
    <g id="Slicing" stroke="none" stroke-width="1" fill="none" fill-rule="evenodd">
        <g id="ux" fill="#FFCC80" fill-rule="nonzero">
            <path d="M49.2192529,8.45569275 C43.8176592,2.98275093 54.5234344,13.8290236 49.2192529,8.45569275 C42.1016388,1.24412846 31.1910371,-1.68895425 21.4154615,0.962260218 C12.3026368,3.4338272 4.8040715,10.6775801 1.86561489,19.6316816 C0.0795796055,25.0733047 -0.0547971345,31.0617 1.55772274,36.5620457 C4.14392982,45.3847826 11.2458883,52.6507196 19.9434066,55.5746677 C29.221919,58.6939227 39.8289773,56.5864355 47.3079733,50.3005127 C49.3884196,48.5518855 51.234033,46.4709323 52.7313108,44.2051118 C52.8543806,44.0185046 52.9761458,43.8301575 53.0926927,43.6444202 C53.4262424,43.1133074 53.2657732,42.4121167 52.7343549,42.0784855 C52.2033714,41.7444195 51.5023514,41.9049278 51.1683667,42.4364756 C51.0596478,42.6100334 50.9487544,42.7822861 50.8361215,42.952799 C50.0111619,44.2007621 49.0770485,45.3813028 48.0503065,46.4739772 L43.8459262,42.2690077 C45.0596649,40.9566673 46.1011926,39.4855587 46.930501,37.9017898 C47.7837276,36.2710427 48.4103837,34.5232857 48.7895955,32.7224608 C48.9796363,31.8198734 49.1087944,30.9038016 49.1740258,29.983815 L55.1287816,29.983815 C55.040067,31.564539 54.8104525,33.1326486 54.4429824,34.6598699 C54.2964292,35.2701495 54.671727,35.883474 55.281858,36.0304978 C55.8911191,36.1770866 56.504729,35.8016973 56.6517171,35.1914178 C58.9435131,25.6583553 56.1029037,15.4293219 49.2192529,8.45569275 Z M42.5873952,13.4723385 C41.2405845,12.2426448 39.7289559,11.1939036 38.1033897,10.3674379 C36.4269431,9.51487349 34.6304707,8.9028541 32.7835527,8.54964883 C31.8511787,8.37130621 30.9061934,8.25864588 29.9577291,8.21166795 L29.9577291,2.26068104 C36.2673436,2.50296591 42.1738282,4.96104843 46.793515,9.26519396 L42.5873952,13.4723385 Z M27.6859373,8.2242824 C26.9101187,8.27126044 26.1373442,8.36217162 25.377616,8.49614603 C24.7600922,8.60489155 24.3473948,9.19429189 24.4561139,9.81196613 C24.5652678,10.4300753 25.1545245,10.8424382 25.7720484,10.7336927 C28.2143116,10.3026257 30.784863,10.3478638 33.1966848,10.9376992 C35.2719127,11.4448881 37.2432052,12.3483454 38.9970597,13.5667295 C40.7396075,14.7781541 42.2664568,16.2958058 43.4971556,18.0244236 C44.7374217,19.766526 45.675884,21.7226395 46.2447017,23.7844535 C46.6539199,25.2681765 46.870488,26.8045326 46.8822297,28.3434983 C46.9204988,33.2344344 44.9835615,38.0518585 41.4593272,41.4612463 C35.0283822,47.6827918 24.3065166,48.1160338 17.432868,42.3655736 C12.0982451,37.9026597 9.73338987,30.2917821 11.6264048,23.5948014 C12.6866322,19.8439528 14.9410289,16.4602289 18.0534358,14.1039322 C18.5535432,13.7250629 18.6522599,13.0125627 18.2734831,12.5123335 C17.895141,12.0121044 17.1823794,11.9133635 16.6822721,12.2922328 C16.1543327,12.691981 15.6433536,13.1195682 15.1549879,13.5706445 L10.9497378,9.36436983 C15.5324602,5.04717489 21.4015455,2.55994856 27.6863721,2.2702507 L27.6863721,8.2242824 L27.6859373,8.2242824 Z M27.6859373,54.7207983 C21.582019,54.4380602 15.8438313,52.0704539 11.3159033,47.965095 L15.5250673,43.7544706 C16.9392838,44.9993888 18.5252763,46.047695 20.2269457,46.8554564 C21.6937821,47.5518623 23.2454193,48.0694907 24.8366303,48.3935522 C25.7759623,48.5849443 26.7292103,48.709784 27.6863721,48.7672016 L27.6863721,54.7207983 L27.6859373,54.7207983 Z M9.3628756,10.990767 L13.5733442,15.2022613 C12.4274462,16.5237363 11.4515846,17.9918 10.6814194,19.5625195 C9.883857,21.1889167 9.30808129,22.9223194 8.97235709,24.7022652 C8.78536039,25.6953288 8.67272761,26.7018767 8.63445853,27.7114697 L2.68709546,27.7114697 C2.86930849,21.4899242 5.21589891,15.618974 9.3628756,10.990767 Z M8.674467,29.983815 C8.79666722,31.6850289 9.13282627,33.3710187 9.6764211,34.9878463 C10.2661129,36.742563 11.1002049,38.4133285 12.1456466,39.9409847 C12.6796742,40.7209072 13.2680613,41.4634211 13.9047196,42.1620021 L9.6985998,46.3691466 C5.50770067,41.8666494 3.06065389,36.122279 2.71927633,29.983815 L8.674467,29.983815 Z M29.9577291,48.7793811 C31.7289786,48.6910797 33.4876168,48.3709331 35.1753702,47.8263359 C36.8626887,47.2817385 38.4765133,46.5126906 39.9629192,45.5461609 C40.7513492,45.0337523 41.5041194,44.4665359 42.2142717,43.8501666 L46.4247403,48.0616611 C41.8598478,52.1544054 36.0851306,54.4937379 29.9577291,54.730368 L29.9577291,48.7793811 Z M49.2140344,27.7119047 C49.1479333,25.9593628 48.8565663,24.2155205 48.3442826,22.5382305 C47.7954691,20.7426254 46.9935579,19.0261869 45.970295,17.4519875 C45.4319186,16.6237821 44.8322247,15.834725 44.179476,15.0930809 L48.3890748,10.8828915 C52.596934,15.5263229 54.9778797,21.4368563 55.1613974,27.7114697 L49.2140344,27.7114697 L49.2140344,27.7119047 Z" id="Shape"></path>
            <path d="M28.4318182,21.6916538 C28.4318182,21.1471612 27.810389,21 27.3883349,21 C26.9662809,20.9995551 26.3452833,21.1476071 26.3452833,21.6916538 L26.3452833,31.4550611 C26.3452833,32.404467 26.0725449,33.4096154 25.1736303,33.8359339 C24.313555,34.2444148 22.952884,34.1975911 22.2334934,33.5139654 C21.5576891,32.871812 21.511945,31.8051238 21.5136712,30.8570556 C21.5184182,27.888434 21.5227337,24.9198124 21.5274807,21.9516367 C21.5279123,21.7616663 21.5257546,21.5618852 21.4355609,21.3964415 C21.2499953,21.0566354 20.7998907,21.0156089 20.4222862,21.0249736 C20.0554703,21.0338924 19.6101127,21.1065807 19.4759012,21.459765 C19.4318182,21.5752635 19.4314519,21.7023563 19.4318182,21.8263276 C19.4353358,24.8136787 19.4392197,27.8010298 19.4431036,30.788381 C19.4448298,32.0530664 19.4771959,33.4163045 20.21428,34.4254664 C21.3281055,35.9501348 23.6394769,36.2324147 25.3233775,35.8417714 C26.1808635,35.6424363 27.0236768,35.2014018 27.5833946,34.4843305 C28.2432316,33.6388285 28.4318182,32.5141682 28.4318182,31.4550611 L28.4318182,21.6916538 Z" id="Path"></path>
            <path d="M33.0320449,28.4815735 C33.0320449,28.4815735 29.5641769,34.5140743 29.5513853,34.5360481 C28.9320915,35.6132162 30.8909827,36.5688555 31.4829286,35.5387742 L34.4201626,30.0973258 C34.4201626,30.0973258 37.3798922,35.5051407 37.3979771,35.5383257 C37.9841888,36.6096641 39.9351403,35.623979 39.3096713,34.5360481 C39.3096713,34.5360481 35.8290116,28.4815735 35.8290116,28.4815735 C35.8290116,28.4815735 39.203368,22.477325 39.2091022,22.4674593 C39.8923542,21.2517211 37.8770033,20.3781476 37.2369784,21.5674274 C37.2369784,21.5674274 34.4201626,26.8039357 34.4201626,26.8039357 C34.4201626,26.8039357 31.651867,21.5826745 31.6439274,21.5674274 C31.0202227,20.3911525 28.9470887,21.2171908 29.6519542,22.4674593 L33.0320449,28.4815735 Z" id="Path"></path>
            <path d="M20.5495868,11.0803139 C20.8566593,11.829493 21.770976,12.2015304 22.526006,11.8890418 C23.3017375,11.5680459 23.6266361,10.6702788 23.3138133,9.92053244 C23.0015655,9.15774222 22.0613721,8.78627184 21.3017418,9.12711712 C20.550737,9.46342549 20.2425145,10.3430445 20.5495868,11.0803139 Z" id="Path"></path>
            <path d="M55.3056028,38.9214041 C55.0004619,38.1747073 54.1164671,37.8033403 53.3621858,38.105076 C52.6079046,38.4073777 52.2330497,39.2831474 52.5381907,40.0304104 L52.5581906,40.0796619 C52.8810458,40.8705152 53.8444687,41.2294278 54.6147498,40.8450404 C55.2993171,40.5031109 55.6124581,39.6737622 55.3256028,38.9706556 L55.3056028,38.9214041 Z" id="Path"></path>
        </g>
    </g>
</svg>