<?xml version="1.0" encoding="UTF-8"?>
<svg width="184px" height="175px" viewBox="0 0 184 175" version="1.1" xmlns="http://www.w3.org/2000/svg" xmlns:xlink="http://www.w3.org/1999/xlink">
    <!-- Generator: Sketch 59.1 (86144) - https://sketch.com -->
    <title>vector_one</title>
    <desc>Created with Sketch.</desc>
    <defs>
        <polygon id="path-1" points="0.30201247 0.648164605 78.1450378 0.648164605 78.1450378 41 0.30201247 41"></polygon>
        <polygon id="path-3" points="0.507849663 0.0219884834 58.468 0.0219884834 58.468 49.8429725 0.507849663 49.8429725"></polygon>
        <polygon id="path-5" points="0.683586051 0.533 53.3066581 0.533 53.3066581 62.6428 0.683586051 62.6428"></polygon>
        <polygon id="path-7" points="0 0.7616 109.6408 0.7616 109.6408 107.0296 0 107.0296"></polygon>
    </defs>
    <g id="Slicing" stroke="none" stroke-width="1" fill="none" fill-rule="evenodd">
        <g id="vector_one" transform="translate(0.000000, -1.000000)">
            <g id="Group-11" transform="translate(1.000000, 21.467000)">
                <g id="Group-3" transform="translate(0.000000, 113.000000)">
                    <mask id="mask-2" fill="white">
                        <use xlink:href="#path-1"></use>
                    </mask>
                    <g id="Clip-2"></g>
                    <path d="M29.1494,20.9105 C29.0664,20.9085 28.9914,20.8895 28.9064,20.8915 C24.2394,21.0165 19.6734,22.0285 15.0144,22.3295 C11.2734,22.5705 7.1634,22.0795 3.8994,24.1565 C2.8394,24.8315 2.6834,26.1975 3.5184,27.1195 C5.5554,29.3705 8.5084,30.1445 11.4914,30.5885 C6.7064,31.2495 2.6574,31.8785 1.6494,32.0815 C-0.2316,32.4615 -0.0606,35.2405 1.6494,35.7205 C6.8174,37.1695 12.0914,37.7995 17.3594,38.7935 C22.0364,39.6765 26.9114,40.9925 31.7014,41.000516 C43.0734,41.0165 40.8224,29.0125 42.0674,21.4915 C42.5704,18.4555 43.8934,16.5335 45.5234,20.2955 C47.4314,24.6965 44.3964,29.9935 46.7984,34.2715 C48.5784,37.4415 52.2474,38.5165 55.5934,38.9115 C61.2314,39.5755 66.9314,39.8755 72.5984,40.1645 C79.9714,40.5395 80.0164,28.4055 72.5984,28.6805 C69.6304,28.7895 66.6634,28.8765 63.6934,28.9175 C62.4804,28.9335 60.6084,29.2065 58.9204,29.2025 C58.9194,28.6065 58.9154,28.1075 58.9264,27.9105 C59.0654,25.5615 59.1004,23.2685 58.8264,20.9285 C58.4114,17.3845 57.2994,13.9765 55.1644,11.1485 C56.2534,10.0615 56.6114,8.3195 55.7504,6.9015 C52.8444,2.1205 47.1324,-0.6005 41.7234,1.2145 C40.8024,1.5225 40.7744,2.8145 41.7234,3.1125 C43.2274,3.5865 44.6914,4.3605 45.9644,5.3645 C41.4834,4.5555 36.7714,5.9785 33.4194,9.8495 C30.8414,12.8235 29.6284,16.5995 29.1884,20.4485 C29.1704,20.6015 29.1644,20.7565 29.1494,20.9105" id="Fill-1" fill="#E0DFE6" mask="url(#mask-2)"></path>
                </g>
                <path d="M74.4522,118.723 C78.7492,121.827 83.2962,125.117 88.5492,126.373 C94.1052,127.703 101.0792,125.832 102.4752,119.587 C103.1322,116.652 101.6062,113.404 98.5222,112.624 C94.9662,111.725 91.3702,112.806 87.8142,112.011 C83.5592,111.061 79.9252,109.86 75.4972,110.727 C71.4432,111.522 71.6902,116.728 74.4522,118.723" id="Fill-4" fill="#E0DFE6"></path>
                <path d="M3.2432,98.1713 C4.7212,98.1723 6.1472,98.6803 7.6372,98.7743 C8.7772,98.8453 9.8822,98.8623 11.0152,99.0613 C13.6622,99.5243 16.0832,100.6923 18.6792,101.2323 C24.1242,102.3613 28.1412,94.6213 22.6612,91.7853 C19.1352,89.9613 14.8922,89.7543 11.0152,90.4493 C9.3812,90.7423 7.7722,91.1923 6.2402,91.8373 C4.3412,92.6383 3.5272,93.8873 2.0252,95.2313 C0.8892,96.2463 1.8072,98.1703 3.2432,98.1713" id="Fill-6" fill="#E0DFE6"></path>
                <g id="Group-10" transform="translate(124.000000, 0.000000)">
                    <mask id="mask-4" fill="white">
                        <use xlink:href="#path-3"></use>
                    </mask>
                    <g id="Clip-9"></g>
                    <path d="M3.9033,46.3593 C8.1753,47.6873 13.8463,47.0083 18.2933,47.2013 C23.5113,47.4283 28.7123,47.9123 33.9153,48.3533 C39.0113,48.7843 44.3743,50.1123 49.4613,49.7943 C50.9753,49.6993 52.1313,49.0503 52.9153,48.1423 C55.5573,48.5153 58.4613,46.8833 58.4683556,43.5033 C58.4813,36.9673 56.2123,30.1483 55.1823,23.6823 C54.0403,16.5043 53.0683,9.3143 52.3683,2.0793 C52.1043,-0.6337 48.2893,-0.6937 48.1023,2.0793 C47.6143,9.3023 47.2893,16.5513 47.3893,23.7923 C47.4593,28.8003 47.1933,34.4213 47.8763,39.6283 C41.0143,38.0043 32.8503,38.3183 26.1073,38.5363 C22.1973,38.6633 18.2823,38.8733 14.3863,39.2453 C12.7513,39.4013 11.1503,39.5933 9.5333,39.8753 C8.4263,40.0673 3.4823,41.8633 2.6123,41.2403 C1.7913,40.6523 0.4103,41.4293 0.5133,42.4443 C0.7243,44.5123 1.8403,45.7173 3.9033,46.3593" id="Fill-8" fill="#E0DFE6" mask="url(#mask-4)"></path>
                </g>
            </g>
            <g id="Group-42" transform="translate(0.000000, 0.467000)">
                <g id="Group-14" transform="translate(122.000000, 0.000000)">
                    <mask id="mask-6" fill="white">
                        <use xlink:href="#path-5"></use>
                    </mask>
                    <g id="Clip-13"></g>
                    <path d="M36.7871,4.2518 C40.7071,4.2568 44.6291,4.2628 48.5561,4.2948 C49.1841,19.7658 49.6131,35.4308 50.0271,50.5948 L50.2651,59.2098 C35.2011,59.2818 20.3041,59.4458 5.1351,59.6258 C4.9371,46.1558 4.5441,32.4398 4.1621,19.1618 C4.0131,13.9788 3.8641,8.7968 3.7261,3.6228 C14.8091,4.2198 25.9741,4.2358 36.7871,4.2518 M2.1561,61.1638 C2.1681,61.9848 2.8371,62.6428 3.6561,62.6428 C19.8711,62.4508 35.7401,62.2728 51.8131,62.2028 C52.2171,62.2008 52.6031,62.0368 52.8851,61.7468 C53.1651,61.4558 53.3171,61.0648 53.3061,60.6608 L53.0261,50.5128 C52.5991,34.8728 52.1561,18.6998 51.4951,2.7458 C51.4621,1.9478 50.8091,1.3158 50.0111,1.3078 C45.6001,1.2648 41.1941,1.2578 36.7911,1.2518 C25.4901,1.2358 13.8041,1.2188 2.2721,0.5348 C1.8471,0.5138 1.4421,0.6628 1.1411,0.9548 C0.8391,1.2468 0.6731,1.6518 0.683586051,2.0718 C0.8341,7.7908 0.9981,13.5178 1.1631,19.2478 C1.5581,33.0078 1.9681,47.2358 2.1561,61.1638" id="Fill-12" fill="#525D7D" mask="url(#mask-6)"></path>
                </g>
                <path d="M135.7686,15.6308 C139.2946,16.0858 143.0496,16.3068 147.2476,16.3068 C151.4536,16.3068 155.5966,16.0948 160.5226,15.7768 C161.3486,15.7238 161.9756,15.0098 161.9226,14.1838 C161.8696,13.3568 161.1536,12.7378 160.3296,12.7828 C155.4606,13.0978 151.3726,13.3068 147.2476,13.3068 C143.1796,13.3068 139.5496,13.0938 136.1516,12.6548 C135.3436,12.5478 134.5786,13.1288 134.4726,13.9508 C134.3666,14.7728 134.9466,15.5248 135.7686,15.6308" id="Fill-15" fill="#525D7D"></path>
                <path d="M144.7969,25.2016 C142.0579,25.1436 139.3099,25.0856 136.5319,24.9986 C135.6849,24.9746 135.0129,25.6236 134.9859,26.4516 C134.9599,27.2796 135.6099,27.9726 136.4389,27.9976 C139.2259,28.0846 141.9839,28.1426 144.7339,28.2016 C150.1569,28.3156 155.7669,28.4336 161.3649,28.7846 C161.3979,28.7856 161.4289,28.7866 161.4599,28.7866 C162.2459,28.7866 162.9059,28.1756 162.9559,27.3806 C163.0079,26.5536 162.3789,25.8416 161.5529,25.7896 C155.8919,25.4356 150.2509,25.3166 144.7969,25.2016" id="Fill-17" fill="#525D7D"></path>
                <path d="M154.3174,33.9276 C152.5064,33.9516 150.6974,33.9756 148.8864,33.9756 C145.7574,33.9756 141.6294,33.9126 137.4504,33.4206 C136.6294,33.3236 135.8824,33.9116 135.7854,34.7356 C135.6874,35.5576 136.2764,36.3036 137.0984,36.4006 C141.4334,36.9106 145.6754,36.9756 148.8864,36.9756 C150.7104,36.9756 152.5344,36.9516 154.3574,36.9276 C157.5884,36.8856 160.8144,36.8416 164.0444,36.9356 C164.8964,36.9366 165.5634,36.2936 165.5874,35.4806 C165.6114,34.6526 164.9604,33.9616 164.1314,33.9366 C160.8604,33.8386 157.5884,33.8836 154.3174,33.9276" id="Fill-19" fill="#525D7D"></path>
                <path d="M149.4131,43.8993 C145.7051,44.0423 141.8711,44.1893 138.0621,44.1893 C137.2341,44.1893 136.5621,44.8603 136.5621,45.6893 C136.5621,46.5173 137.2341,47.1893 138.0621,47.1893 C141.9291,47.1893 145.7921,47.0403 149.5281,46.8973 C154.4431,46.7083 159.5131,46.5133 164.5691,46.6623 C165.4181,46.6843 166.0881,46.0353 166.1121,45.2073 C166.1371,44.3793 165.4851,43.6883 164.6571,43.6633 C159.5151,43.5113 154.3761,43.7093 149.4131,43.8993" id="Fill-21" fill="#525D7D"></path>
                <g id="Group-25" transform="translate(0.000000, 60.000000)">
                    <mask id="mask-8" fill="white">
                        <use xlink:href="#path-7"></use>
                    </mask>
                    <g id="Clip-24"></g>
                    <path d="M42.0518,3.7616 C49.7748,3.7616 51.8348,9.8266 51.8348,13.4106 C51.8348,14.9696 51.1178,17.1946 50.2888,19.7716 C49.0828,23.5176 47.5818,28.1796 47.5818,33.1846 C47.5818,34.0106 48.2488,34.6796 49.0738,34.6846 C57.3978,34.7296 65.8268,34.9286 73.2258,35.1236 C73.1978,39.1396 73.1168,43.2026 73.0398,47.1436 C73.0078,48.8226 72.9748,50.5016 72.9458,52.1786 C72.9338,52.8616 73.3858,53.4676 74.0438,53.6496 C75.1838,53.9666 76.4218,54.2606 77.7548,54.2606 C79.4928,54.2606 81.7758,53.3326 84.6658,52.1586 C88.2268,50.7126 92.6568,48.9136 96.4568,48.9136 C104.7698,48.9136 106.6408,59.7166 106.6408,63.5016 C106.6408,69.3926 101.4848,76.5096 95.0818,76.5096 C92.3238,76.5096 89.8798,75.4726 87.2918,74.3756 C84.3438,73.1246 81.0008,71.7076 76.7788,71.7076 C76.5428,71.7076 76.3088,71.7126 76.0748,71.7206 C75.2688,71.7526 74.6308,72.4166 74.6328,73.2226 C74.6458,78.9176 74.9588,84.6396 75.2618,90.1756 C75.5098,94.7076 75.7658,99.3806 75.8558,104.0246 C75.0768,104.0276 74.2998,104.0296 73.5228,104.0296 C69.3578,104.0296 64.9358,103.9686 60.5928,103.5526 C60.7508,101.7536 60.8288,100.1176 60.8288,98.5826 C60.8288,81.2326 49.3768,77.3096 47.2698,77.3096 C46.6648,77.3096 46.0938,77.2936 45.5338,77.2756 C44.9658,77.2596 44.4078,77.2426 43.8408,77.2426 C34.9488,77.2426 27.9848,86.4816 27.9848,98.2746 C27.9848,99.7746 28.0588,101.3526 28.2138,103.1486 C24.9078,103.1346 21.5618,103.2156 18.3268,103.2946 C15.3518,103.3656 12.2758,103.4396 9.2488,103.4396 C7.2488,103.4396 5.4198,103.4076 3.6978,103.3416 C3.6748,101.5016 3.6658,99.6636 3.6658,97.8246 C3.6658,94.7896 3.6908,89.2286 3.7108,84.4066 L3.7308,79.7066 C6.6168,80.5096 9.8148,81.3386 12.8588,81.3386 C20.4678,81.3386 28.3378,75.1146 28.3378,64.6986 C28.3378,56.1596 25.2008,52.8316 17.1498,52.8316 C14.4208,52.8316 11.7088,53.3046 9.0858,53.7616 C6.9968,54.1266 5.0008,54.4736 3.0048,54.5986 C3.0188,50.4636 3.0388,47.3916 3.0608,44.3126 C3.0798,41.2936 3.1008,38.2646 3.1148,34.2196 C9.0438,34.6936 15.0598,34.7956 22.1258,34.7956 L29.8518,34.7826 L31.1938,34.7846 C31.7058,34.7936 32.1388,34.5496 32.4198,34.1516 C33.7748,32.2396 34.4898,30.0316 34.4898,27.7646 C34.4898,24.9296 33.4738,22.8506 32.4908,20.8396 C31.4198,18.6476 30.3128,16.3816 30.3128,12.7636 C30.3128,6.5786 36.3978,3.7616 42.0518,3.7616 M27.3128,12.7636 C27.3128,17.0746 28.6318,19.7746 29.7958,22.1566 C30.7048,24.0166 31.4898,25.6236 31.4898,27.7646 C31.4898,29.1866 31.1178,30.5356 30.3828,31.7836 L29.8518,31.7826 L22.1258,31.7956 C14.4928,31.7956 8.1088,31.6766 1.7578,31.0926 C1.3398,31.0516 0.9218,31.1926 0.6108,31.4766 C0.2998,31.7606 0.1208,32.1606 0.1198,32.5816 C0.1068,37.4656 0.0828,40.8846 0.0608,44.2936 C0.0368,47.7486 0.0138,51.1936 -0.000204287302,56.1436 C-0.000204287302,56.5436 0.1728,56.9256 0.4538,57.2076 C0.7358,57.4896 1.1338,57.6476 1.5318,57.6476 C4.2638,57.6476 6.9778,57.1756 9.6018,56.7186 C12.2138,56.2616 14.6808,55.8316 17.1498,55.8316 C24.1998,55.8316 25.3378,58.4456 25.3378,64.6986 C25.3378,73.2356 18.9928,78.3386 12.8588,78.3386 C9.9788,78.3386 6.7168,77.4276 3.8398,76.6236 L2.6338,76.2886 C2.1858,76.1656 1.7008,76.2596 1.3298,76.5416 C0.9578,76.8236 0.7388,77.2636 0.7388,77.7306 L0.7108,84.3936 C0.6908,89.2196 0.6658,94.7866 0.6658,97.8246 C0.6658,100.1486 0.6798,102.4726 0.7198,104.8036 C0.7338,105.5926 1.3558,106.2356 2.1438,106.2756 C4.3218,106.3866 6.6458,106.4396 9.2488,106.4396 C12.3118,106.4396 15.4058,106.3646 18.3998,106.2936 C22.1528,106.2026 26.0288,106.1076 29.8468,106.1646 C30.2428,106.1646 30.6868,105.9916 30.9768,105.6756 C31.2658,105.3576 31.4058,104.9316 31.3598,104.5056 C31.1038,102.0946 30.9848,100.1146 30.9848,98.2746 C30.9848,88.3316 36.7518,80.2426 43.8408,80.2426 C44.3788,80.2426 44.9058,80.2596 45.4448,80.2746 C46.0328,80.2916 46.5938,80.3036 47.2468,80.3096 C47.3528,80.3166 57.8288,82.6126 57.8288,98.5826 C57.8288,100.4246 57.7088,102.4336 57.4628,104.7266 C57.3748,105.5456 57.9638,106.2826 58.7818,106.3776 C63.7418,106.9506 68.7978,107.0296 73.5228,107.0296 C74.6238,107.0296 75.7278,107.0246 76.8298,107.0206 L77.3838,107.0186 C77.7828,107.0176 78.1658,106.8566 78.4468,106.5716 C78.7268,106.2866 78.8818,105.9026 78.8778,105.5026 C78.8208,100.2966 78.5338,95.0676 78.2568,90.0116 C77.9838,85.0096 77.7008,79.8516 77.6438,74.7316 C80.8638,74.9076 83.5318,76.0396 86.1208,77.1366 C88.8708,78.3036 91.7148,79.5096 95.0818,79.5096 C103.2818,79.5096 109.6408,70.9036 109.6408,63.5016 C109.6408,56.7016 106.0618,45.9136 96.4568,45.9136 C92.0708,45.9136 87.3388,47.8356 83.5368,49.3786 C81.1568,50.3456 78.9068,51.2606 77.7548,51.2606 C77.1608,51.2606 76.5588,51.1706 75.9668,51.0416 C75.9898,49.7616 76.0148,48.4826 76.0398,47.2036 C76.1268,42.7686 76.2158,38.1836 76.2338,33.6686 C76.2368,32.8526 75.5878,32.1846 74.7738,32.1636 C71.1528,32.0666 67.2548,31.9676 63.2228,31.8836 C63.1758,32.4116 63.1188,32.9296 63.0778,33.4656 C63.0178,34.2516 62.3608,34.8486 61.5848,34.8486 C61.5458,34.8486 61.5068,34.8476 61.4678,34.8446 C60.6418,34.7816 60.0238,34.0606 60.0878,33.2346 C60.1238,32.7586 60.1758,32.2956 60.2168,31.8236 C57.0598,31.7646 53.8428,31.7196 50.6288,31.6946 C50.8778,27.7316 52.0748,24.0136 53.1448,20.6906 C54.0518,17.8736 54.8348,15.4406 54.8348,13.4106 C54.8348,7.3186 50.8348,0.7616 42.0518,0.7616 C31.9248,0.7616 27.3128,6.9836 27.3128,12.7636" id="Fill-23" fill="#525D7D" mask="url(#mask-8)"></path>
                </g>
                <path d="M90.2559,39.6727 C90.5029,39.6727 90.7539,39.6107 90.9849,39.4827 C92.0969,38.8627 93.2609,38.2707 94.4449,37.7217 C95.1959,37.3737 95.5239,36.4817 95.1759,35.7297 C94.8269,34.9787 93.9359,34.6507 93.1839,34.9997 C91.9319,35.5797 90.7009,36.2067 89.5249,36.8617 C88.8009,37.2657 88.5409,38.1787 88.9439,38.9027 C89.2189,39.3947 89.7299,39.6727 90.2559,39.6727" id="Fill-26" fill="#525D7D"></path>
                <path d="M114.958,32.2108 C115.016,32.2108 115.074,32.2078 115.133,32.2008 C116.413,32.0518 117.73,31.9268 119.049,31.8298 C119.875,31.7688 120.495,31.0488 120.435,30.2228 C120.373,29.3978 119.65,28.7848 118.828,28.8378 C117.468,28.9388 116.108,29.0668 114.787,29.2208 C113.964,29.3158 113.374,30.0608 113.47,30.8838 C113.559,31.6478 114.207,32.2108 114.958,32.2108" id="Fill-28" fill="#525D7D"></path>
                <path d="M79.875,47.4076 C80.254,47.4076 80.634,47.2646 80.926,46.9786 C81.842,46.0786 82.809,45.2076 83.798,44.3886 C84.436,43.8606 84.524,42.9156 83.996,42.2776 C83.468,41.6386 82.522,41.5496 81.884,42.0786 C80.831,42.9506 79.801,43.8786 78.824,44.8366 C78.233,45.4166 78.224,46.3666 78.804,46.9576 C79.098,47.2576 79.486,47.4076 79.875,47.4076" id="Fill-30" fill="#525D7D"></path>
                <path d="M102.2315,34.7279 C102.3715,34.7279 102.5125,34.7079 102.6525,34.6669 C103.8775,34.3109 105.1495,33.9789 106.4355,33.6839 C107.2435,33.4979 107.7475,32.6929 107.5615,31.8859 C107.3765,31.0789 106.5735,30.5739 105.7635,30.7599 C104.4205,31.0679 103.0915,31.4139 101.8125,31.7879 C101.0165,32.0199 100.5605,32.8529 100.7935,33.6479 C100.9835,34.3029 101.5825,34.7279 102.2315,34.7279" id="Fill-32" fill="#525D7D"></path>
                <path d="M62.959,81.9369 C63.052,81.9549 63.144,81.9619 63.234,81.9619 C63.943,81.9619 64.573,81.4579 64.707,80.7359 C64.949,79.4319 65.217,78.1359 65.503,76.8799 C65.688,76.0729 65.183,75.2689 64.375,75.0839 C63.567,74.9009 62.763,75.4059 62.579,76.2119 C62.283,77.5069 62.007,78.8449 61.758,80.1889 C61.606,81.0029 62.145,81.7859 62.959,81.9369" id="Fill-34" fill="#525D7D"></path>
                <path d="M66.0039,69.3129 C66.1669,69.3689 66.3319,69.3959 66.4939,69.3959 C67.1159,69.3959 67.6969,69.0059 67.9119,68.3849 C68.3439,67.1359 68.8079,65.9039 69.2919,64.7239 C69.6069,63.9579 69.2399,63.0819 68.4739,62.7669 C67.7069,62.4519 66.8309,62.8189 66.5169,63.5849 C66.0109,64.8169 65.5259,66.1029 65.0759,67.4049 C64.8059,68.1879 65.2219,69.0419 66.0039,69.3129" id="Fill-36" fill="#525D7D"></path>
                <path d="M71.1348,57.3974 C71.3748,57.5414 71.6408,57.6094 71.9028,57.6094 C72.4128,57.6094 72.9098,57.3484 73.1918,56.8774 C73.8598,55.7594 74.5698,54.6624 75.3028,53.6194 C75.7798,52.9404 75.6148,52.0054 74.9378,51.5294 C74.2598,51.0544 73.3238,51.2164 72.8478,51.8944 C72.0718,52.9994 71.3218,54.1584 70.6148,55.3404 C70.1908,56.0514 70.4228,56.9724 71.1348,57.3974" id="Fill-38" fill="#525D7D"></path>
                <path d="M61.4678,94.8451 C61.5068,94.8481 61.5458,94.8491 61.5848,94.8491 C62.3608,94.8491 63.0178,94.2511 63.0778,93.4651 C63.1188,92.9301 63.1758,92.4111 63.2228,91.8831 C63.2928,91.0951 63.3568,90.3011 63.4388,89.5261 C63.5268,88.7021 62.9298,87.9621 62.1068,87.8741 C61.2788,87.7911 60.5438,88.3831 60.4558,89.2071 C60.3638,90.0681 60.2928,90.9491 60.2168,91.8241 C60.1758,92.2951 60.1238,92.7581 60.0878,93.2351 C60.0238,94.0611 60.6418,94.7821 61.4678,94.8451" id="Fill-40" fill="#525D7D"></path>
            </g>
        </g>
    </g>
</svg>